<svg xmlns="http://www.w3.org/2000/svg" version="1.1" xmlns:xlink="http://www.w3.org/1999/xlink" xmlns:svgjs="http://svgjs.dev/svgjs" width="51.93" height="58.19"><svg id="SvgjsSvg1001" xmlns="http://www.w3.org/2000/svg" viewBox="0 0 51.93 58.19"><defs><style>.b{fill:#ed6847;}</style></defs><polygon class="b" points="39.83 6.45 25.66 12.14 11.81 6.59 11.78 .12 25.66 5.67 39.81 0 39.83 6.45"></polygon><path class="b" d="M51.9,41.33l-.19-27.72-.05-6.33-5.88,2.35-20.2,8.06L5.93,9.84h0L0,7.47l.05,6.38.19,27.86.05,6.38,5.93,2.37,11.41,4.55,7.94,3.18,7.94-3.18,12.54-5,5.88-2.35-.02-6.33ZM25.56,51.83l-19.4-7.75-.09-12.26-.05-6.33-.07-9.27,11.64,4.65h0l7.94,3.18,7.94-3.18,12.31-4.91.07,9.84.12,17.85-20.42,8.18Z"></path><polygon class="b" points="33.53 35.9 26.84 39.91 20.96 43.44 20.96 28.38 33.53 35.9"></polygon></svg><style>@media (prefers-color-scheme: light) { :root { filter: none; } }
@media (prefers-color-scheme: dark) { :root { filter: none; } }
</style></svg>