<?xml version="1.0" encoding="UTF-8"?><svg id="a" xmlns="http://www.w3.org/2000/svg" viewBox="0 0 249.92 69.92"><defs><style>.b{fill:#ed6847;}.c{fill:#343434;}</style></defs><polygon class="b" points="47.87 7.75 30.83 14.59 14.19 7.92 14.16 .14 30.83 6.81 47.84 0 47.87 7.75"/><path class="b" d="M62.37,49.67l-.23-33.31-.06-7.61-7.07,2.82-24.28,9.69L7.12,11.83h0L0,8.98l.06,7.66.23,33.48.06,7.66,7.12,2.85,13.71,5.47,9.55,3.82,9.55-3.82,15.07-6.01,7.07-2.82-.03-7.61ZM30.72,62.29l-23.31-9.32-.11-14.73-.06-7.61-.09-11.14,13.99,5.58h0l9.55,3.82,9.55-3.82,14.79-5.9.09,11.83.14,21.46-24.53,9.83Z"/><polygon class="b" points="40.29 43.14 32.26 47.96 25.19 52.2 25.19 34.11 40.29 43.14"/><path class="c" d="M87.08,26.87c1.11,0,1.91-.28,2.45-.85.51-.57.77-1.31.77-2.22s-.26-1.65-.77-2.22c-.51-.57-1.34-.85-2.48-.85s-1.94.28-2.45.85c-.54.57-.8,1.31-.8,2.22s.26,1.65.8,2.22c.51.57,1.34.85,2.48.85Z"/><polygon class="c" points="82.18 28.35 82.18 32.85 84.54 32.85 84.54 47.1 90.73 47.1 90.73 32.85 90.73 28.35 84.54 28.35 82.18 28.35"/><polygon class="c" points="114.63 42.09 114.12 42.09 105.88 22.34 95.54 22.34 95.54 47.1 101.38 47.1 101.38 27.35 101.87 27.35 110.13 47.1 120.53 47.1 120.53 22.34 114.63 22.34 114.63 42.09"/><path class="c" d="M137.34,28.86c-1.34-.57-2.99-.85-4.9-.85-.68,0-1.42,0-2.22.03s-1.57.06-2.34.11c-.74.06-1.4.09-1.94.14v5.16c.77-.06,1.62-.09,2.54-.14.94-.06,1.82-.09,2.65-.11.83-.03,1.48-.03,1.91-.03.91,0,1.57.2,1.94.63.4.4.57,1.03.6,1.85h-2.96c-1.71,0-3.19.2-4.5.6-1.31.4-2.34,1.05-3.08,1.91-.74.88-1.11,1.99-1.11,3.42,0,1.25.28,2.31.85,3.22.57.88,1.37,1.57,2.39,2.05s2.19.71,3.5.71,2.42-.23,3.31-.71c.88-.48,1.6-1.17,2.11-2.05.2-.37.37-.77.51-1.2v3.5h4.87v-11.37c0-1.74-.34-3.19-1.08-4.3-.66-1.14-1.68-1.99-3.05-2.56ZM135.12,42.14c-.28.48-.63.8-1.03,1-.43.2-.91.28-1.45.28-.83,0-1.48-.2-1.94-.63-.46-.43-.68-.97-.68-1.65s.23-1.25.68-1.68,1.08-.63,1.94-.63h2.96v1.31c-.03.85-.2,1.51-.48,1.99Z"/><path class="c" d="M156.97,39.32c0,.88-.26,1.6-.77,2.11-.51.51-1.2.77-2.02.77s-1.51-.26-1.99-.77-.74-1.2-.74-2.02v-11.03h-6.18v10.86c0,2.88.57,5.01,1.74,6.38,1.17,1.4,2.82,2.08,4.93,2.08h.28c1.4,0,2.59-.31,3.53-.91.94-.6,1.68-1.54,2.17-2.79.14-.4.28-.85.4-1.31v4.42h4.87v-18.72h-6.18v10.94h-.03Z"/><polygon class="c" points="186.75 28.35 180.28 28.35 173.87 37.1 173.87 22.34 167.72 22.34 167.72 47.1 173.87 47.1 173.87 38.35 175.47 38.35 180.99 47.1 187.89 47.1 180.82 36.36 186.75 28.35"/><path class="c" d="M201.8,28.86c-1.34-.57-2.99-.85-4.9-.85-.68,0-1.42,0-2.22.03s-1.57.06-2.34.11c-.74.06-1.4.09-1.94.14v5.16c.77-.06,1.62-.09,2.54-.14.94-.06,1.82-.09,2.65-.11.83-.03,1.48-.03,1.91-.03.91,0,1.57.2,1.94.63.4.4.57,1.03.6,1.85h-2.96c-1.71,0-3.19.2-4.5.6-1.31.4-2.34,1.05-3.08,1.91-.74.88-1.11,1.99-1.11,3.42,0,1.25.28,2.31.85,3.22.57.88,1.37,1.57,2.39,2.05,1.03.48,2.19.71,3.5.71s2.42-.23,3.31-.71,1.6-1.17,2.11-2.05c.2-.37.37-.77.51-1.2v3.5h4.87v-11.37c0-1.74-.34-3.19-1.08-4.3-.68-1.14-1.71-1.99-3.05-2.56ZM199.57,42.14c-.28.48-.63.8-1.03,1-.43.2-.91.28-1.45.28-.83,0-1.48-.2-1.94-.63s-.68-.97-.68-1.65.23-1.25.68-1.68c.46-.43,1.08-.63,1.94-.63h2.96v1.31c-.06.85-.23,1.51-.48,1.99Z"/><rect class="c" x="209.2" y="40.38" width="6.64" height="6.72"/><path class="c" d="M237.78,30.49c-.74-.85-1.65-1.51-2.68-1.97-1.05-.46-2.19-.68-3.5-.68-1.48,0-2.82.34-3.96,1s-2.05,1.65-2.74,2.93c-.23.43-.4.88-.57,1.37v-4.76h-4.87v25.53h6.18v-8.95c.57.8,1.31,1.45,2.17,1.88,1.11.57,2.39.85,3.85.85,1.37,0,2.56-.23,3.62-.71s1.94-1.14,2.65-2.02,1.25-1.88,1.62-3.05c.37-1.17.54-2.45.54-3.82v-.83c0-1.37-.2-2.65-.6-3.79-.4-1.14-.97-2.14-1.71-2.99ZM233.4,40.23c-.34.74-.83,1.34-1.45,1.74-.63.43-1.34.63-2.17.63-.68,0-1.34-.17-1.99-.48-.66-.31-1.2-.8-1.62-1.42s-.66-1.37-.66-2.25v-1.14c0-.94.2-1.71.6-2.37.4-.66.94-1.14,1.57-1.48s1.34-.51,2.08-.51c.83,0,1.57.2,2.17.6.6.4,1.08.94,1.45,1.65.34.71.51,1.57.51,2.54.03.91-.14,1.77-.48,2.51Z"/><polygon class="c" points="243.74 22.34 241.66 22.34 241.66 26.81 243.74 26.81 243.74 47.1 249.92 47.1 249.92 26.81 249.92 22.34 243.74 22.34"/></svg>